<svg xmlns="http://www.w3.org/2000/svg" viewBox="0 0 122 40" style="enable-background:new 0 0 122 40"><style>.st0{fill:#2E343D}</style><g><polygon class="st0" points="54,30.1 54,13 48,13 48,10.1 63.6,10.1 63.6,13 57.6,13 57.6,30.1"/><path class="st0" d="M73.4,30.1V10.1h6.9c3.6,0,6.4,0.9,8.3,2.6s2.8,4.2,2.8,7.3s-0.9,5.6-2.8,7.4c-1.9,1.8-4.8,2.7-8.6,2.7H73.4zM77,27.1h3.6c2.3,0,4.1-0.6,5.4-1.8c1.3-1.2,1.9-3,1.9-5.2s-0.6-4-1.9-5.2s-3.2-1.8-5.8-1.8H77L77,27.1L77,27.1z"/><path class="st0" d="M111.3,30.4c-2.8,0.1-5.5-1-7.5-3c-4.1-4.1-4.1-10.7,0-14.8c2-2,4.7-3,7.5-3c2.8-0.1,5.5,1,7.5,3c4.1,4.1,4.1,10.7,0,14.8C116.8,29.3,114.1,30.4,111.3,30.4z M111.3,12.6c-1.9,0-3.7,0.8-4.9,2.2c-1.3,1.4-2,3.3-2,5.2c0,1.9,0.7,3.8,2,5.2c2.4,2.7,6.6,2.9,9.3,0.5c0.2-0.2,0.3-0.3,0.5-0.5c2.7-3,2.7-7.5,0-10.4C115,13.3,113.2,12.5,111.3,12.6z"/><path class="st0" d="M65.8,14.2c0-2.1,1.5-3.8,3.5-4.1h0V26c0,2.1-1.5,3.8-3.5,4.1h0V14.2z"/><path class="st0" d="M94.4,14.2c0-2.1,1.5-3.8,3.5-4.1h0V26c0,2.1-1.5,3.8-3.5,4.1h0V14.2z"/><path class="st1" d="M24.7,0.9c-6.6,0-12.2,4.7-13.4,11.2c0.8-0.1,1.6-0.2,2.4-0.2l0,0c-0.8,0-1.6,0.1-2.4,0.2l0,0C4.8,13.3,0.1,18.9,0.1,25.5v13.5h13.6c6.5,0,12.1-4.6,13.3-11h-2.3c-0.2,0-0.5,0-0.7,0c0.2,0,0.5,0,0.7,0h13.6V14.5C38.2,7,32.2,0.9,24.7,0.9zM11.1,14.5c0,0.9,0.1,1.8,0.3,2.7C11.2,16.3,11.1,15.4,11.1,14.5L11.1,14.5z" style="fill:#135EEB"/><path class="st2" d="13.7,11.9c-0.8,0-1.6,0.1-2.4,0.2c-0.1,0.8-0.2,1.6-0.2,2.4c0,7.5,6.1,13.6,13.6,13.5c0,0,0,0,0,0H27c0.2-0.8,0.2-1.7,0.2-2.6C27.3,18,21.2,12,13.7,11.9C13.7,11.9,13.7,11.9,13.7,11.9z" style="fill:#0A60EA"/><path class="st3" d="M24.7,28.1c-7.5,0-13.6-6-13.6-13.5c0,0,0,0,0,0c0-0.8,0.1-1.6,0.2-2.4C4.8,13.3,0.1,18.9,0.1,25.5v13.5h13.6c6.5,0,12.1-4.6,13.3-11H24.7z" style="fill:#15C2FF"/><path class="st4" d="M24.7,0.9c-6.6,0-12.2,4.7-13.4,11.2c0.8-0.1,1.6-0.2,2.4-0.2c7.5,0,13.6,6,13.6,13.5c0,0.9-0.1,1.7-0.2,2.6h11.2V14.5C38.2,7,32.2,0.9,24.7,0.9z" style="fill:#2C82FF"/></g></svg>